<svg xmlns="http://www.w3.org/2000/svg" viewBox="0 0 430 476"><g><path fill="#2e7d32" d="M215 30c-102 0-185 83-185 185 0 102 83 185 185 185 102 0 185-83 185-185C400 113 317 30 215 30zm0 340c-85.5 0-155-69.5-155-155S129.5 60 215 60s155 69.5 155 155-69.5 155-155 155z"/><path fill="#66bb6a" d="M215 60c-85.5 0-155 69.5-155 155s69.5 155 155 155 155-69.5 155-155S300.5 60 215 60zm0 280c-69.6 0-126-56.4-126-126S145.4 88 215 88s126 56.4 126 126-56.4 126-126 126z"/><path fill="#43a047" d="M215 88c-69.6 0-126 56.4-126 126s56.4 126 126 126 126-56.4 126-126-56.4-126-126-126zm0 230c-57.4 0-104-46.6-104-104s46.6-104 104-104 104 46.6 104 104-46.6 104-104 104z"/><path fill="#a5d6a7" d="M215 120c-52.9 0-96 43.1-96 96s43.1 96 96 96 96-43.1 96-96-43.1-96-96-96zm0 170c-40.8 0-74-33.2-74-74s33.2-74 74-74 74 33.2 74 74-33.2 74-74 74z"/><path fill="#388e3c" d="M215 146c-38.6 0-70 31.4-70 70s31.4 70 70 70 70-31.4 70-70-31.4-70-70-70zm0 120c-27.6 0-50-22.4-50-50s22.4-50 50-50 50 22.4 50 50-22.4 50-50 50z"/></g></svg>